HIERARCHY
ROOT hip
{
  OFFSET 0 0 0
  CHANNELS 6 Xposition Yposition Zposition Zrotation Yrotation Xrotation
  JOINT abdomen
  {
    OFFSET 0 20.6881 -0.73152
    CHANNELS 3 Zrotation Xrotation Yrotation
    JOINT chest
    {
      OFFSET 0 11.7043 -0.48768
      CHANNELS 3 Zrotation Xrotation Yrotation
      JOINT neck
      {
        OFFSET 0 22.1894 -2.19456
        CHANNELS 3 Zrotation Xrotation Yrotation
        JOINT head
        {
          OFFSET -0.24384 7.07133 1.2192
          CHANNELS 3 Zrotation Xrotation Yrotation
          JOINT leftEye
          {
            OFFSET 4.14528 8.04674 8.04672
            CHANNELS 3 Zrotation Xrotation Yrotation
            End Site
            {
              OFFSET 1 0 0
            }
          }
          JOINT rightEye
          {
            OFFSET -3.6576 8.04674 8.04672
            CHANNELS 3 Zrotation Xrotation Yrotation
            End Site
            {
              OFFSET 1 0 0
            }
          }
        }
      }
      JOINT rCollar
      {
        OFFSET -2.68224 19.2634 -4.8768
        CHANNELS 3 Zrotation Xrotation Yrotation
        JOINT rShldr
        {
          OFFSET -8.77824 -1.95073 1.46304
          CHANNELS 3 Zrotation Xrotation Yrotation
          JOINT rForeArm
          {
            OFFSET -28.1742 -1.7115 0.48768
            CHANNELS 3 Zrotation Xrotation Yrotation
            JOINT rHand
            {
              OFFSET -22.5879 0.773209 7.07136
              CHANNELS 3 Zrotation Xrotation Yrotation
              JOINT rThumb1
              {
                OFFSET -1.2192 -0.487915 3.41376
                CHANNELS 3 Zrotation Xrotation Yrotation
                JOINT rThumb2
                {
                  OFFSET -3.37035 -0.52449 3.41376
                  CHANNELS 3 Zrotation Xrotation Yrotation
                  End Site
                  {
                    OFFSET -1.78271 -1.18214 1.43049
                  }
                }
              }
              JOINT rIndex1
              {
                OFFSET -7.75947 0.938293 5.60832
                CHANNELS 3 Zrotation Xrotation Yrotation
                JOINT rIndex2
                {
                  OFFSET -2.54057 -0.884171 1.56538
                  CHANNELS 3 Zrotation Xrotation Yrotation
                  End Site
                  {
                    OFFSET -1.62519 -0.234802 1.16502
                  }
                }
              }
              JOINT rMid1
              {
                OFFSET -8.24714 1.18213 3.41376
                CHANNELS 3 Zrotation Xrotation Yrotation
                JOINT rMid2
                {
                  OFFSET -3.10165 -0.590103 1.0647
                  CHANNELS 3 Zrotation Xrotation Yrotation
                  End Site
                  {
                    OFFSET -2.48547 -0.328903 0.83742
                  }
                }
              }
              JOINT rRing1
              {
                OFFSET -8.82822 0.546677 1.51678
                CHANNELS 3 Zrotation Xrotation Yrotation
                JOINT rRing2
                {
                  OFFSET -2.60934 -0.819778 -0.0198488
                  CHANNELS 3 Zrotation Xrotation Yrotation
                  End Site
                  {
                    OFFSET -2.33842 -0.294052 0.168128
                  }
                }
              }
              JOINT rPinky1
              {
                OFFSET -8.27202 -0.0477905 -0.4584
                CHANNELS 3 Zrotation Xrotation Yrotation
                JOINT rPinky2
                {
                  OFFSET -1.82734 -0.647385 -0.700984
                  CHANNELS 3 Zrotation Xrotation Yrotation
                  End Site
                  {
                    OFFSET -1.69225 -0.51767 -0.607171
                  }
                }
              }
            }
          }
        }
      }
      JOINT lCollar
      {
        OFFSET 2.68224 19.2634 -4.8768
        CHANNELS 3 Zrotation Xrotation Yrotation
        JOINT lShldr
        {
          OFFSET 8.77824 -1.95073 1.46304
          CHANNELS 3 Zrotation Xrotation Yrotation
          JOINT lForeArm
          {
            OFFSET 28.1742 -1.7115 0.48768
            CHANNELS 3 Zrotation Xrotation Yrotation
            JOINT lHand
            {
              OFFSET 22.5879 0.773209 7.07136
              CHANNELS 3 Zrotation Xrotation Yrotation
              JOINT lThumb1
              {
                OFFSET 1.2192 -0.487915 3.41376
                CHANNELS 3 Zrotation Xrotation Yrotation
                JOINT lThumb2
                {
                  OFFSET 3.37035 -0.52449 3.41376
                  CHANNELS 3 Zrotation Xrotation Yrotation
                  End Site
                  {
                    OFFSET 1.78271 -1.18214 1.43049
                  }
                }
              }
              JOINT lIndex1
              {
                OFFSET 7.75947 0.938293 5.60832
                CHANNELS 3 Zrotation Xrotation Yrotation
                JOINT lIndex2
                {
                  OFFSET 2.54057 -0.884171 1.56538
                  CHANNELS 3 Zrotation Xrotation Yrotation
                  End Site
                  {
                    OFFSET 1.62519 -0.234802 1.16502
                  }
                }
              }
              JOINT lMid1
              {
                OFFSET 8.24714 1.18213 3.41376
                CHANNELS 3 Zrotation Xrotation Yrotation
                JOINT lMid2
                {
                  OFFSET 3.10165 -0.590103 1.0647
                  CHANNELS 3 Zrotation Xrotation Yrotation
                  End Site
                  {
                    OFFSET 2.48547 -0.328903 0.83742
                  }
                }
              }
              JOINT lRing1
              {
                OFFSET 8.82822 0.546677 1.51678
                CHANNELS 3 Zrotation Xrotation Yrotation
                JOINT lRing2
                {
                  OFFSET 2.60934 -0.819778 -0.0198488
                  CHANNELS 3 Zrotation Xrotation Yrotation
                  End Site
                  {
                    OFFSET 2.33842 -0.294052 0.168128
                  }
                }
              }
              JOINT lPinky1
              {
                OFFSET 8.27202 -0.0477905 -0.4584
                CHANNELS 3 Zrotation Xrotation Yrotation
                JOINT lPinky2
                {
                  OFFSET 1.82734 -0.647385 -0.700984
                  CHANNELS 3 Zrotation Xrotation Yrotation
                  End Site
                  {
                    OFFSET 1.69225 -0.51767 -0.607171
                  }
                }
              }
            }
          }
        }
      }
    }
  }
  JOINT rButtock
  {
    OFFSET -8.77824 4.35084 1.2192
    CHANNELS 3 Zrotation Xrotation Yrotation
    JOINT rThigh
    {
      OFFSET 0 -1.70687 -2.19456
      CHANNELS 3 Zrotation Xrotation Yrotation
      JOINT rShin
      {
        OFFSET 0 -36.8199 0.73152
        CHANNELS 3 Zrotation Xrotation Yrotation
        JOINT rFoot
        {
          OFFSET 0.73152 -45.1104 -5.12064
          CHANNELS 3 Zrotation Xrotation Yrotation
          End Site
          {
            OFFSET -1.1221 -3.69964 12.103
          }
        }
      }
    }
  }
  JOINT lButtock
  {
    OFFSET 8.77824 4.35084 1.2192
    CHANNELS 3 Zrotation Xrotation Yrotation
    JOINT lThigh
    {
      OFFSET 0 -1.70687 -2.19456
      CHANNELS 3 Zrotation Xrotation Yrotation
      JOINT lShin
      {
        OFFSET 0 -36.8199 0.73152
        CHANNELS 3 Zrotation Xrotation Yrotation
        JOINT lFoot
        {
          OFFSET -0.73152 -45.1104 -5.12064
          CHANNELS 3 Zrotation Xrotation Yrotation
          End Site
          {
            OFFSET 1.1221 -3.69964 12.103
          }
        }
      }
    }
  }
}
MOTION
Frames:	7
Frame Time:	0.00833333
51.4512 84.7333 -225.044 -358.453 5.4582 5.6382 2.59999 4.6748 4.50697 0.298563 -8.99865 1.39251 -5.72114 14.1597 -6.25264 5.10091 -30.2458 -10.9343 -0.0 0.0 0.0 -0.0 0.0 0.0 -1.0487e-14 -2.61423e-13 -1.76971e-13 80.3617 22.0877 -12.1164 -12.2844 -5.64918 22.1636 -1.70674 34.328 5.50971 3.0052e-10 -4.46253e-10 9.85248e-10 5.4344e-10 -7.79625e-10 1.69061e-09 3.00523e-10 -4.46247e-10 9.85235e-10 7.73091 5.47488 0.417314 3.00519e-10 -4.46248e-10 9.85251e-10 2.90554 0.965183 0.102902 3.0053e-10 -4.46247e-10 9.85251e-10 10.2786 0.731801 0.0259123 3.0052e-10 -4.46248e-10 9.85262e-10 2.22167 -0.733487 -0.20892 -1.05918e-14 -2.61428e-13 -1.77037e-13 -80.5809 13.3724 11.6308 15.9216 -8.61395 -29.5089 0.119748 9.82277 -1.39431 1.17332e-09 1.51719e-09 -1.05682e-09 2.02087e-09 2.62552e-09 -1.83912e-09 1.17332e-09 1.5172e-09 -1.05681e-09 -7.73091 5.47488 -0.417314 1.17332e-09 1.51719e-09 -1.05682e-09 -2.90554 0.965183 -0.102902 1.17332e-09 1.51719e-09 -1.05682e-09 -10.2786 0.731801 -0.0259123 1.17333e-09 1.51719e-09 -1.05683e-09 -2.22167 -0.733487 0.20892 -2.03217e-16 0.0 -3.88251e-19 5.52719 -23.4896 -4.94759 -0.128855 37.3953 1.30818 -22.9156 -19.2221 -44.1136 2.03217e-16 0.0 3.88251e-19 -3.89296 -20.6322 -9.92008 0.18935 30.55 -0.636647 3.81626 -17.4679 9.20595
51.6309 84.7328 -225.184 -358.481 5.9647 5.6418 2.5815 4.87926 4.49092 0.39422 -8.85166 1.39469 -5.7489 14.0899 -6.47973 5.03968 -30.2026 -11.3991 -0.0 0.0 0.0 -0.0 0.0 0.0 -1.85721e-14 -1.58017e-13 -1.02014e-13 80.4056 22.5047 -11.8155 -12.3853 -5.71975 22.3637 -1.68409 34.1202 5.46758 3.39571e-10 -4.25314e-10 7.07195e-10 6.04307e-10 -7.37097e-10 1.21015e-09 3.39575e-10 -4.25311e-10 7.07187e-10 7.73091 5.47488 0.417314 3.39569e-10 -4.2531e-10 7.07197e-10 2.90554 0.965183 0.102902 3.39578e-10 -4.2531e-10 7.07199e-10 10.2786 0.731801 0.0259123 3.3957e-10 -4.2531e-10 7.07209e-10 2.22167 -0.733487 -0.20892 -1.87075e-14 -1.58021e-13 -1.02064e-13 -80.6935 14.3847 11.353 15.8736 -8.56948 -29.4082 0.130616 10.2572 -1.45728 9.2022e-10 1.32341e-09 -5.09436e-10 1.58765e-09 2.29158e-09 -8.90468e-10 9.20219e-10 1.32341e-09 -5.09429e-10 -7.73091 5.47488 -0.417314 9.20222e-10 1.32341e-09 -5.0944e-10 -2.90554 0.965183 -0.102902 9.20215e-10 1.32341e-09 -5.0944e-10 -10.2786 0.731801 -0.0259123 9.20226e-10 1.32341e-09 -5.09447e-10 -2.22167 -0.733487 0.20892 -2.03217e-16 0.0 -3.88251e-19 5.39044 -23.3488 -5.1401 -0.128722 37.5326 1.33501 -23.4089 -19.5624 -44.3736 2.03217e-16 0.0 3.88251e-19 -4.00975 -20.4923 -9.98329 0.188708 30.4342 -0.626242 3.49897 -17.4398 8.44567
51.886 84.7485 -225.212 -358.484 6.3677 5.5159 2.60865 5.05387 4.46555 0.463984 -8.71395 1.39299 -5.77246 14.0151 -6.68835 5.00158 -30.0923 -11.8219 -0.0 0.0 0.0 -0.0 0.0 0.0 -2.69795e-14 -2.82307e-14 -1.53965e-14 80.4889 23.0818 -11.5147 -12.5431 -5.83376 22.6723 -1.61881 33.5625 5.3525 4.2007e-10 -4.12841e-10 3.55129e-10 7.35024e-10 -7.07854e-10 6.01073e-10 4.20076e-10 -4.1284e-10 3.55125e-10 7.73091 5.47488 0.417314 4.20068e-10 -4.1284e-10 3.5513e-10 2.90554 0.965183 0.102902 4.20074e-10 -4.1284e-10 3.55132e-10 10.2786 0.731801 0.0259123 4.20068e-10 -4.12839e-10 3.55142e-10 2.22167 -0.733487 -0.20892 -2.71438e-14 -2.82326e-14 -1.54423e-14 -80.7981 15.4611 11.1538 15.8569 -8.5544 -29.3725 0.139873 10.6067 -1.50808 6.17831e-10 1.09985e-09 1.53805e-10 1.07009e-09 1.90623e-09 2.59173e-10 6.1783e-10 1.09985e-09 1.53809e-10 -7.73091 5.47488 -0.417314 6.17832e-10 1.09984e-09 1.53801e-10 -2.90554 0.965183 -0.102902 6.17825e-10 1.09985e-09 1.53801e-10 -10.2786 0.731801 -0.0259123 6.17835e-10 1.09985e-09 1.53794e-10 -2.22167 -0.733487 0.20892 -2.03217e-16 0.0 -3.88251e-19 5.31294 -23.1814 -5.29376 -0.127723 37.6274 1.35893 -23.892 -19.8907 -44.6426 2.03217e-16 0.0 3.88251e-19 -4.10818 -20.3272 -10.0997 0.187944 30.3144 -0.61706 3.21528 -17.4502 7.75233
52.1142 84.7707 -225.262 -358.462 7.0909 5.3244 2.68843 5.17867 4.42338 0.476585 -8.63509 1.38256 -5.81035 14.0114 -6.8654 5.0131 -29.9913 -12.1732 -0.0 0.0 0.0 -0.0 0.0 0.0 -3.22173e-14 7.5935e-14 5.40694e-14 80.6179 23.8119 -11.2749 -12.766 -6.00061 23.1027 -1.52775 32.7756 5.19167 4.43904e-10 -4.19757e-10 8.68546e-11 7.69989e-10 -7.15084e-10 1.37893e-10 4.43911e-10 -4.19757e-10 8.68514e-11 7.73091 5.47488 0.417314 4.43902e-10 -4.19757e-10 8.68546e-11 2.90554 0.965183 0.102902 4.43906e-10 -4.19757e-10 8.68578e-11 10.2786 0.731801 0.0259123 4.43901e-10 -4.19756e-10 8.68673e-11 2.22167 -0.733487 -0.20892 -3.23899e-14 7.5935e-14 5.40197e-14 -80.9128 16.5994 11.0665 15.8774 -8.57379 -29.4142 0.144369 10.7685 -1.53167 3.02855e-10 8.32585e-10 6.66756e-10 5.29544e-10 1.44479e-09 1.14925e-09 3.02854e-10 8.32585e-10 6.66759e-10 -7.73091 5.47488 -0.417314 3.02856e-10 8.32582e-10 6.66752e-10 -2.90554 0.965183 -0.102902 3.02848e-10 8.32583e-10 6.66752e-10 -10.2786 0.731801 -0.0259123 3.02858e-10 8.32586e-10 6.66746e-10 -2.22167 -0.733487 0.20892 -2.03217e-16 0.0 -3.88251e-19 5.25215 -23.0642 -5.41793 -0.126842 37.701 1.3797 -24.3168 -20.2383 -44.8201 2.03217e-16 0.0 3.88251e-19 -4.22718 -20.2066 -10.2846 0.186846 30.1825 -0.60952 3.01666 -17.4231 7.27726
52.3278 84.7733 -225.364 -358.509 7.4552 5.3609 2.86176 5.24569 4.34797 0.398386 -8.64552 1.35655 -5.87054 14.0998 -7.00305 5.10072 -29.889 -12.4315 -0.0 0.0 0.0 -0.0 0.0 0.0 -3.47806e-14 1.59683e-13 1.07734e-13 80.8197 24.7695 -11.1382 -13.0786 -6.23888 23.7099 -1.41342 31.7174 4.98119 3.80047e-10 -4.93539e-10 -7.00086e-11 6.56332e-10 -8.42226e-10 -1.3096e-10 3.80054e-10 -4.9354e-10 -7.00166e-11 7.73091 5.47488 0.417314 3.80046e-10 -4.9354e-10 -7.0009e-11 2.90554 0.965183 0.102902 3.8005e-10 -4.9354e-10 -7.0006e-11 10.2786 0.731801 0.0259123 3.80043e-10 -4.93539e-10 -6.99967e-11 2.22167 -0.733487 -0.20892 -3.49315e-14 1.59685e-13 1.0767e-13 -81.0527 17.8436 11.1356 15.9523 -8.64359 -29.5705 0.141518 10.6647 -1.51654 -8.07178e-11 4.61647e-10 1.04106e-09 -1.3075e-10 8.03416e-10 1.80062e-09 -8.07202e-11 4.61647e-10 1.04106e-09 -7.73091 5.47488 -0.417314 -8.07167e-11 4.61644e-10 1.04106e-09 -2.90554 0.965183 -0.102902 -8.07243e-11 4.61645e-10 1.04106e-09 -10.2786 0.731801 -0.0259123 -8.07159e-11 4.61648e-10 1.04105e-09 -2.22167 -0.733487 0.20892 -2.03217e-16 0.0 -3.88251e-19 5.20867 -23.0063 -5.54528 -0.125207 37.7317 1.39968 -24.7699 -20.6797 -44.9503 2.03217e-16 0.0 3.88251e-19 -4.37142 -20.1565 -10.5737 0.18525 30.0335 -0.604001 2.92867 -17.3358 7.08879
52.5077 84.767 -225.486 -358.594 7.944 5.526 3.11183 5.26646 4.24809 0.254423 -8.71307 1.31938 -5.94152 14.2395 -7.1099 5.24416 -29.756 -12.617 -0.0 0.0 0.0 -0.0 0.0 0.0 -3.60563e-14 2.4439e-13 1.57953e-13 81.0837 25.9334 -11.067 -13.4633 -6.53479 24.4706 -1.27875 30.3473 4.71827 2.82448e-10 -6.13509e-10 -1.94803e-10 4.85276e-10 -1.05116e-09 -3.43636e-10 2.82454e-10 -6.13508e-10 -1.94819e-10 7.73091 5.47488 0.417314 2.82447e-10 -6.13509e-10 -1.94803e-10 2.90554 0.965183 0.102902 2.82453e-10 -6.13509e-10 -1.94801e-10 10.2786 0.731801 0.0259123 2.82443e-10 -6.13508e-10 -1.94792e-10 2.22167 -0.733487 -0.20892 -3.61671e-14 2.44396e-13 1.57863e-13 -81.2187 19.1777 11.3373 16.0724 -8.75563 -29.8236 0.133484 10.3668 -1.4732 -5.30529e-10 1.32102e-11 1.39112e-09 -9.05806e-10 2.76951e-11 2.41101e-09 -5.30533e-10 1.32124e-11 1.39113e-09 -7.73091 5.47488 -0.417314 -5.30528e-10 1.32088e-11 1.39112e-09 -2.90554 0.965183 -0.102902 -5.30535e-10 1.32098e-11 1.39112e-09 -10.2786 0.731801 -0.0259123 -5.30529e-10 1.3211e-11 1.39112e-09 -2.22167 -0.733487 0.20892 -2.03217e-16 0.0 -3.88251e-19 5.20071 -22.9708 -5.66093 -0.122554 37.7171 1.41812 -25.2431 -21.1772 -45.065 2.03217e-16 0.0 3.88251e-19 -4.52222 -20.1367 -10.9483 0.183289 29.8726 -0.600183 2.91881 -17.2316 7.09667
52.6845 84.7777 -225.588 -358.681 8.541 5.5017 3.35891 5.25018 4.15412 0.101485 -8.79334 1.28314 -6.01208 14.4142 -7.19768 5.39734 -29.6399 -12.764 -0.0 0.0 0.0 -0.0 0.0 0.0 -3.38903e-14 3.02318e-13 1.92421e-13 81.361 27.1522 -11.0011 -13.8665 -6.85007 25.281 -1.13777 28.7887 4.429 1.80452e-10 -6.88348e-10 -2.90165e-10 3.07366e-10 -1.18274e-09 -5.05488e-10 1.80456e-10 -6.88346e-10 -2.9019e-10 7.73091 5.47488 0.417314 1.80451e-10 -6.88348e-10 -2.90165e-10 2.90554 0.965183 0.102902 1.80458e-10 -6.88348e-10 -2.90164e-10 10.2786 0.731801 0.0259123 1.80446e-10 -6.88347e-10 -2.90155e-10 2.22167 -0.733487 -0.20892 -3.3955e-14 3.02326e-13 1.923e-13 -81.4049 20.51 11.6008 16.2043 -8.87899 -30.1038 0.124032 9.99684 -1.41952 -9.22323e-10 -3.97406e-10 1.60494e-09 -1.58164e-09 -6.82919e-10 2.78522e-09 -9.22329e-10 -3.97403e-10 1.60496e-09 -7.73091 5.47488 -0.417314 -9.22322e-10 -3.97407e-10 1.60494e-09 -2.90554 0.965183 -0.102902 -9.22329e-10 -3.97406e-10 1.60494e-09 -10.2786 0.731801 -0.0259123 -9.22325e-10 -3.97406e-10 1.60494e-09 -2.22167 -0.733487 0.20892 -2.03217e-16 0.0 -3.88251e-19 5.21157 -22.9646 -5.70314 -0.120893 37.7082 1.43015 -25.5414 -21.5987 -45.0395 2.03217e-16 0.0 3.88251e-19 -4.68382 -20.1176 -11.3421 0.181194 29.7073 -0.597438 2.95382 -17.1328 7.21493
